<?xml version="1.0" encoding="UTF-8"?>
<!DOCTYPE svg PUBLIC "-//W3C//DTD SVG 1.1//EN" "http://www.w3.org/Graphics/SVG/1.1/DTD/svg11.dtd">
<svg xmlns="http://www.w3.org/2000/svg" version="1.1" width="2500px" height="227px" style="shape-rendering:geometricPrecision; text-rendering:geometricPrecision; image-rendering:optimizeQuality; fill-rule:evenodd; clip-rule:evenodd" xmlns:xlink="http://www.w3.org/1999/xlink">
<g><path style="opacity:0.992" fill="#fe6799" d="M 2499.5,32.5 C 2499.5,97.1667 2499.5,161.833 2499.5,226.5C 1666.17,226.5 832.833,226.5 -0.5,226.5C -0.5,165.5 -0.5,104.5 -0.5,43.5C 144.408,4.96495 284.408,17.465 419.5,81C 451.387,99.2011 484.387,115.201 518.5,129C 610.755,162.235 704.089,165.235 798.5,138C 825.374,129.468 851.708,119.468 877.5,108C 932.895,78.0882 990.562,53.4215 1050.5,34C 1127.36,12.1771 1205.69,4.17714 1285.5,10C 1342.09,16.0414 1397.75,26.7081 1452.5,42C 1500.17,57.8921 1547.84,74.2255 1595.5,91C 1641.39,105.472 1688.05,116.805 1735.5,125C 1777.5,130.961 1819.5,130.961 1861.5,125C 1893.04,118.956 1924.37,111.622 1955.5,103C 2012.62,84.299 2070.28,66.9657 2128.5,51C 2187.89,35.2772 2248.22,24.9439 2309.5,20C 2373.5,16.1245 2436.83,20.2912 2499.5,32.5 Z"/></g>
</svg>
