<?xml version="1.0" encoding="UTF-8"?>
<!DOCTYPE svg PUBLIC "-//W3C//DTD SVG 1.1//EN" "http://www.w3.org/Graphics/SVG/1.1/DTD/svg11.dtd">
<svg xmlns="http://www.w3.org/2000/svg" version="1.1" width="2500px" height="227px" style="shape-rendering:geometricPrecision; text-rendering:geometricPrecision; image-rendering:optimizeQuality; fill-rule:evenodd; clip-rule:evenodd" xmlns:xlink="http://www.w3.org/1999/xlink">
<g><path style="opacity:0.992" fill="#f66d3b" d="M -0.5,-0.5 C 832.833,-0.5 1666.17,-0.5 2499.5,-0.5C 2499.5,64.1667 2499.5,128.833 2499.5,193.5C 2400.48,212.531 2301.48,212.031 2202.5,192C 2157,182.568 2112,171.235 2067.5,158C 2014.39,141.059 1961.06,125.059 1907.5,110C 1863.8,99.4583 1819.46,95.1249 1774.5,97C 1739.05,100.064 1704.05,105.73 1669.5,114C 1644.72,120.694 1620.05,127.694 1595.5,135C 1547.84,151.775 1500.17,168.108 1452.5,184C 1397.75,199.292 1342.09,209.959 1285.5,216C 1205.69,221.823 1127.36,213.823 1050.5,192C 990.562,172.578 932.895,147.912 877.5,118C 812.434,86.8454 743.601,70.6788 671,69.5C 618.595,70.3055 567.761,79.4722 518.5,97C 484.387,110.799 451.387,126.799 419.5,145C 284.408,208.535 144.408,221.035 -0.5,182.5C -0.5,121.5 -0.5,60.5 -0.5,-0.5 Z"/></g>
</svg>
