<?xml version="1.0" encoding="UTF-8"?>
<svg version="1.1" xmlns="http://www.w3.org/2000/svg" width="3500" height="277">
<path d="M0 0 C0.80224503 -0.00350464 1.60449005 -0.00700928 2.43104553 -0.01062012 C5.0745619 -0.01939989 7.71780918 -0.01360157 10.36132812 -0.00683594 C12.20308483 -0.00818367 14.04484119 -0.0101251 15.88659668 -0.01263428 C19.74327996 -0.01558045 23.59987048 -0.01130417 27.45654297 -0.00195312 C32.39624159 0.00944109 37.33572286 0.00287892 42.27541351 -0.00909805 C46.07755161 -0.01633031 49.8796383 -0.01402244 53.68177795 -0.00884247 C55.50301642 -0.00750975 57.32425957 -0.00914044 59.14549255 -0.01380157 C61.6921726 -0.01888922 64.23850225 -0.01112516 66.78515625 0 C67.53543594 -0.00404846 68.28571564 -0.00809692 69.05873108 -0.01226807 C73.13515171 0.02066724 76.20620904 0.52255229 79.89257812 2.25878906 C82.05438584 2.59833448 82.05438584 2.59833448 84.21289062 2.63769531 C84.99535156 2.67185547 85.7778125 2.70601563 86.58398438 2.74121094 C87.38707031 2.76763672 88.19015625 2.7940625 89.01757812 2.82128906 C90.62449409 2.88132487 92.23128001 2.94497867 93.83789062 3.01269531 C94.54445801 3.03662354 95.25102539 3.06055176 95.97900391 3.08520508 C97.89257812 3.25878906 97.89257812 3.25878906 100.89257812 4.25878906 C104.24536984 4.56630626 107.5987711 4.76775986 110.95898438 4.97753906 C113.89257812 5.25878906 113.89257812 5.25878906 115.89257812 6.25878906 C118.66378625 6.6092394 121.42658309 6.91776022 124.20507812 7.19628906 C155.09887261 10.46508355 155.09887261 10.46508355 157.89257812 13.25878906 C160.41130471 13.77796121 162.9230537 14.2520149 165.45507812 14.69628906 C166.93326436 14.96405065 168.41113539 15.23355875 169.88867188 15.50488281 C170.55568115 15.62532959 171.22269043 15.74577637 171.90991211 15.86987305 C174.55943421 16.38959829 177.16846385 17.03047167 179.77539062 17.73144531 C182.79478299 18.48350799 185.84390523 19.07430823 188.89257812 19.69628906 C193.41440416 20.65153681 197.58294531 21.76209503 201.84960938 23.50878906 C205.41438011 24.81746207 209.11240101 25.61510976 212.79882812 26.50878906 C220.11986779 28.28358656 226.97755569 30.24132473 233.89257812 33.25878906 C236.23652358 34.00988761 238.59648137 34.69337723 240.95898438 35.38378906 C249.97705081 38.07359849 258.70667832 41.02816116 267.21679688 45.07519531 C270.06653812 46.33573779 272.92511154 47.31026637 275.89257812 48.25878906 C280.74918001 49.81739044 285.27713788 51.72734845 289.88867188 53.89550781 C295.79470058 56.57587715 301.85913309 58.88303299 307.89257812 61.25878906 C309.55970186 61.92431193 311.22656757 62.59048445 312.89257812 63.25878906 C312.89257812 63.91878906 312.89257812 64.57878906 312.89257812 65.25878906 C313.58609375 65.3709375 314.27960938 65.48308594 314.99414062 65.59863281 C324.93300109 67.86233553 334.2818238 73.41128004 343.17382812 78.25488281 C346.70586842 80.17450992 350.28870268 81.97714343 353.89257812 83.75878906 C358.71801548 86.14713684 363.4728849 88.63109939 368.20507812 91.19628906 C374.41866079 94.55903997 380.74781877 97.61623204 387.17114258 100.55737305 C390.8951052 102.27129534 394.38007154 104.13577999 397.89257812 106.25878906 C399.43896032 106.94231598 401.00232855 107.58865989 402.58007812 108.19628906 C403.44375 108.53402344 404.30742188 108.87175781 405.19726562 109.21972656 C406.08671875 109.56261719 406.97617188 109.90550781 407.89257812 110.25878906 C409.66503784 110.94208513 411.43592699 111.62947175 413.20507812 112.32128906 C413.98496094 112.62164062 414.76484375 112.92199219 415.56835938 113.23144531 C417.89257812 114.25878906 417.89257812 114.25878906 420.34179688 115.75488281 C422.97975388 117.31018671 425.49512238 118.28211859 428.39257812 119.25878906 C432.23822688 120.55507516 435.43744052 122.1391076 438.89257812 124.25878906 C440.74948362 124.95512862 442.60768376 125.64837195 444.47460938 126.31738281 C447.41019335 127.46031615 450.23091304 128.78997296 453.08007812 130.13378906 C458.58725375 132.70890359 464.15288161 134.9710469 469.84179688 137.11035156 C472.54065056 138.12630929 475.21882598 139.17892148 477.89257812 140.25878906 C482.81492037 142.24051126 487.76806263 144.13793085 492.72460938 146.03222656 C495.52485972 147.1164172 498.3031523 148.24163119 501.08007812 149.38378906 C505.20676101 151.05459238 509.38250643 152.3156784 513.65820312 153.54394531 C516.56785153 154.47482933 519.16266084 155.89383042 521.89257812 157.25878906 C524.19337233 158.03164271 526.51331518 158.70453155 528.84570312 159.37597656 C532.58396642 160.45911439 536.30112488 161.6033837 540.01757812 162.75878906 C540.67419434 162.96036621 541.33081055 163.16194336 542.00732422 163.36962891 C545.33767144 164.40490538 548.6154358 165.51232944 551.87304688 166.75878906 C555.88995249 168.28810756 559.95425488 169.55846235 564.08007812 170.75878906 C564.81548828 170.9745459 565.55089844 171.19030273 566.30859375 171.41259766 C571.8461805 173.01311872 577.41934602 174.33894338 583.04882812 175.57910156 C585.56773691 176.18114844 587.95171876 176.90095081 590.39257812 177.75878906 C599.77097872 181.03270345 609.69418933 182.64515836 619.41601562 184.56738281 C631.63030604 186.99651697 631.63030604 186.99651697 632.89257812 188.25878906 C635.70326176 188.78038995 638.50654043 189.25546452 641.33007812 189.69628906 C646.16482314 190.46094748 650.97507276 191.25945605 655.76757812 192.25878906 C662.28830975 193.58883801 668.87371326 194.36927214 675.47265625 195.20214844 C676.41689453 195.32525391 677.36113281 195.44835937 678.33398438 195.57519531 C679.18677979 195.6829126 680.0395752 195.79062988 680.91821289 195.90161133 C682.89257812 196.25878906 682.89257812 196.25878906 683.89257812 197.25878906 C685.86767686 197.46822516 687.84829495 197.62682728 689.83007812 197.75878906 C695.67249559 198.1487478 695.67249559 198.1487478 697.89257812 199.25878906 C700.0350505 199.46419254 702.18196415 199.62468161 704.33007812 199.75878906 C707.7870639 199.97509208 710.60304523 200.1622781 713.89257812 201.25878906 C716.0075229 201.46563314 718.12719791 201.6254641 720.24804688 201.75878906 C721.51068359 201.84128906 722.77332031 201.92378906 724.07421875 202.00878906 C725.40948552 202.09243724 726.7447722 202.17576822 728.08007812 202.25878906 C742.76130963 203.18862461 742.76130963 203.18862461 746.94726562 203.79003906 C752.8930714 204.49647143 758.84804091 204.5892195 764.83007812 204.75878906 C767.27679002 204.82836381 769.72341141 204.90120899 772.16992188 204.97753906 C773.24491943 205.00783203 774.31991699 205.038125 775.42749023 205.06933594 C778.00130566 205.21005888 780.46463268 205.44364856 783.01416016 205.76806641 C788.89371556 206.44959045 794.7576386 206.40203459 800.66992188 206.39160156 C801.87644913 206.39255829 803.08297638 206.39351501 804.32606506 206.39450073 C806.86670992 206.39517843 809.40735655 206.3933529 811.94799805 206.38916016 C815.81433037 206.38381085 819.68054628 206.38911678 823.546875 206.39550781 C826.02539088 206.39484687 828.50390669 206.39356537 830.98242188 206.39160156 C832.70004982 206.39463791 832.70004982 206.39463791 834.45237732 206.3977356 C840.25735212 206.38096913 845.9336346 206.14341792 851.70207214 205.49237061 C854.6749795 205.17535879 857.63498648 205.08026966 860.62304688 205.01269531 C861.82687012 204.98111328 863.03069336 204.94953125 864.27099609 204.91699219 C866.1564917 204.86961914 866.1564917 204.86961914 868.08007812 204.82128906 C879.35771309 204.49548152 890.5448057 203.81105606 901.77539062 202.73144531 C907.81153656 202.15187549 913.85295997 201.81267007 919.90820312 201.50488281 C922.94436888 201.37329969 922.94436888 201.37329969 925.89257812 200.25878906 C929.24536984 199.95127186 932.5987711 199.74981826 935.95898438 199.54003906 C938.82423559 199.44288245 938.82423559 199.44288245 940.89257812 198.25878906 C944.23324162 197.94230515 947.57475423 197.74750382 950.92382812 197.54003906 C953.81905822 197.44590844 953.81905822 197.44590844 955.89257812 196.25878906 C958.71201028 195.94551882 961.53235894 195.74848942 964.36132812 195.54003906 C966.88331816 195.40746294 966.88331816 195.40746294 968.89257812 194.25878906 C970.3144877 194.05259069 971.7432731 193.89241889 973.17382812 193.75878906 C974.01558594 193.67628906 974.85734375 193.59378906 975.72460938 193.50878906 C978.39257812 193.25878906 978.39257812 193.25878906 981.06054688 193.00878906 C981.90230469 192.92628906 982.7440625 192.84378906 983.61132812 192.75878906 C984.38412109 192.68660156 985.15691406 192.61441406 985.953125 192.54003906 C987.96925751 192.35137495 987.96925751 192.35137495 989.89257812 191.25878906 C991.17132812 191.13503906 992.45007812 191.01128906 993.76757812 190.88378906 C997.4085815 190.51449554 1000.79528698 189.82771104 1004.33007812 188.88378906 C1010.3267754 187.30773401 1016.34750015 186.29542981 1022.46191406 185.31396484 C1026.85639415 184.60574812 1031.19774956 183.82691952 1035.52929688 182.79394531 C1039.6408102 181.86290841 1043.78815142 181.09362661 1047.93041992 180.31152344 C1051.19130311 179.89082822 1051.19130311 179.89082822 1053.89257812 178.25878906 C1056.22591146 177.92545573 1058.55924479 177.5921224 1060.89257812 177.25878906 C1061.22257812 176.92878906 1061.55257813 176.59878906 1061.89257812 176.25878906 C1064.22591146 175.92545573 1066.55924479 175.5921224 1068.89257812 175.25878906 C1069.22257812 174.92878906 1069.55257813 174.59878906 1069.89257812 174.25878906 C1071.28064669 173.92892521 1072.68062556 173.64875625 1074.08398438 173.39160156 C1074.94701172 173.22789062 1075.81003906 173.06417969 1076.69921875 172.89550781 C1078.50862556 172.55953008 1080.31851016 172.22611338 1082.12890625 171.89550781 C1087.68234181 170.83653784 1092.63099975 169.31573909 1097.89257812 167.25878906 C1099.79863888 166.77717745 1101.71592517 166.33747412 1103.64257812 165.94628906 C1110.41778097 164.45384927 1117.00783243 162.4836574 1123.640625 160.45751953 C1128.12475663 159.08812945 1132.6075646 157.7650461 1137.14257812 156.57128906 C1140.8538094 155.58856427 1144.36002816 154.3504959 1147.92773438 152.94238281 C1150.0858883 152.19153403 1152.21689031 151.71548506 1154.45507812 151.25878906 C1158.5423553 150.4148291 1162.06358147 148.93817356 1165.89257812 147.25878906 C1168.3699179 146.46058109 1170.86207031 145.73132371 1173.36132812 145.00488281 C1176.42460124 144.10197361 1179.44622927 143.09944089 1182.47070312 142.07519531 C1184.26944747 141.4688444 1186.07219211 140.87433372 1187.87695312 140.28613281 C1188.91335937 139.94710937 1189.94976563 139.60808594 1191.01757812 139.25878906 C1191.96890625 138.94941406 1192.92023437 138.64003906 1193.90039062 138.32128906 C1196.97233816 137.27132825 1196.97233816 137.27132825 1200.18164062 135.81347656 C1204.39320159 133.97473973 1208.74666772 132.70353064 1213.14257812 131.38378906 C1219.43246746 129.45408713 1225.3485104 127.29539207 1231.27539062 124.41503906 C1235.3813981 122.60104173 1239.6574033 121.42272726 1243.95898438 120.16113281 C1246.26519604 119.45176544 1248.39021944 118.69074253 1250.58007812 117.69628906 C1254.11627148 116.16171459 1257.64651457 115.08541153 1261.34179688 114.00878906 C1266.43030442 112.51262758 1271.41794283 110.91418253 1276.26757812 108.75878906 C1280.21731473 107.12441529 1284.15105448 106.08303001 1288.27929688 105.00488281 C1290.91693844 104.25183417 1293.3307609 103.22563432 1295.81835938 102.07519531 C1299.89288638 100.47147376 1304.16749769 99.45300704 1308.39257812 98.32128906 C1311.37624465 97.41553315 1314.106434 96.30142035 1316.95019531 95.03955078 C1320.86377663 93.46644457 1324.95566327 92.43889372 1329.01757812 91.32128906 C1330.8889298 90.7961657 1332.76002443 90.27012541 1334.63085938 89.74316406 C1335.53271973 89.48986328 1336.43458008 89.2365625 1337.36376953 88.97558594 C1347.14908869 86.21049026 1347.14908869 86.21049026 1356.70507812 82.75878906 C1361.34509255 80.93839961 1366.20648054 79.90544219 1371.04150391 78.74145508 C1374.47572814 77.90316407 1377.80439203 77.03031048 1381.08007812 75.69628906 C1385.38971272 73.94225835 1389.86710945 73.07502984 1394.40039062 72.07519531 C1397.93841833 71.24807251 1401.40593925 70.27993163 1404.89257812 69.25878906 C1410.44402767 67.63472763 1416.00520412 66.27050269 1421.66210938 65.06738281 C1424.22873485 64.42495056 1426.60501561 63.67604281 1429.09179688 62.79785156 C1434.2715933 61.03429691 1439.50615959 60.10022532 1444.89257812 59.19628906 C1456.14126875 58.21186993 1456.14126875 58.21186993 1465.89257812 54.25878906 C1468.70331793 53.73717775 1471.50663426 53.26299519 1474.33007812 52.82128906 C1481.57186898 51.66643184 1481.57186898 51.66643184 1488.76757812 50.25878906 C1492.12550851 49.58067606 1495.47914591 48.99721253 1498.86914062 48.50488281 C1499.77422363 48.37146484 1500.67930664 48.23804688 1501.61181641 48.10058594 C1503.44560718 47.83396983 1505.27991288 47.57086847 1507.11474609 47.31152344 C1507.95924316 47.18970703 1508.80374023 47.06789062 1509.67382812 46.94238281 C1510.43759766 46.83466553 1511.20136719 46.72694824 1511.98828125 46.6159668 C1513.97004264 46.33449913 1513.97004264 46.33449913 1515.89257812 45.25878906 C1518.97263725 44.94378302 1522.05357724 44.74795258 1525.14257812 44.54003906 C1527.85123805 44.42691414 1527.85123805 44.42691414 1529.89257812 43.25878906 C1532.0350505 43.05338559 1534.18196415 42.89289651 1536.33007812 42.75878906 C1539.7870639 42.54248604 1542.60304523 42.35530003 1545.89257812 41.25878906 C1549.31680534 40.8007942 1552.76311739 40.55075127 1556.20507812 40.25878906 C1557.10419922 40.17628906 1558.00332031 40.09378906 1558.9296875 40.00878906 C1576.11033539 38.52189053 1593.33207558 38.08964124 1610.56982422 38.12841797 C1613.39230717 38.13378855 1616.21463109 38.12841955 1619.03710938 38.12207031 C1636.0744971 38.11506894 1653.1147838 38.61491497 1670.08007812 40.25878906 C1671.46743164 40.38253906 1671.46743164 40.38253906 1672.8828125 40.50878906 C1676.42315908 40.8393247 1679.50584797 41.12987901 1682.89257812 42.25878906 C1686.01743828 42.56365347 1689.14285924 42.76720122 1692.27539062 42.97753906 C1694.89257812 43.25878906 1694.89257812 43.25878906 1695.89257812 44.25878906 C1697.70068996 44.46775223 1699.51473845 44.62659268 1701.33007812 44.75878906 C1706.6727308 45.1488654 1706.6727308 45.1488654 1708.89257812 46.25878906 C1710.22166801 46.43924739 1711.55639855 46.57937335 1712.89257812 46.69628906 C1716.95124469 47.11371521 1720.86768061 47.81237643 1724.85742188 48.65332031 C1727.32569815 49.1457049 1729.79122015 49.59524419 1732.27148438 50.02050781 C1733.04234375 50.15279785 1733.81320313 50.28508789 1734.60742188 50.42138672 C1736.1602787 50.68590206 1737.71366214 50.94734599 1739.26757812 51.20556641 C1744.78313388 52.14934482 1744.78313388 52.14934482 1745.89257812 53.25878906 C1748.07231987 53.73343463 1750.26213037 54.16196931 1752.45507812 54.57128906 C1758.70554678 55.77104143 1764.86732283 57.19418242 1771.03149414 58.77539062 C1776.27408355 60.11829464 1781.53847942 61.31728655 1786.83007812 62.45019531 C1789.25228558 63.08973223 1791.43636152 63.8221657 1793.75976562 64.72753906 C1797.78296837 66.27848659 1801.81107909 67.27982225 1806.01757812 68.19628906 C1824.30552796 72.34815882 1824.30552796 72.34815882 1832.76757812 75.75878906 C1837.35926116 77.59147817 1842.18692018 78.62553733 1846.99560547 79.72558594 C1851.55032792 80.80043354 1855.57986548 82.40849622 1859.89257812 84.25878906 C1863.2211186 85.3312754 1866.58472402 86.26483796 1869.95507812 87.19628906 C1870.87885254 87.45643799 1871.80262695 87.71658691 1872.75439453 87.98461914 C1876.20649211 88.95621612 1879.6611511 89.91830233 1883.11767578 90.87402344 C1885.00184225 91.39499113 1886.88475844 91.92047476 1888.76757812 92.44628906 C1889.79625 92.72859375 1890.82492188 93.01089844 1891.88476562 93.30175781 C1894.89257812 94.25878906 1894.89257812 94.25878906 1898.08789062 95.68457031 C1902.85031007 97.78525216 1907.86496213 98.96133977 1912.89257812 100.25878906 C1919.15710993 101.87544243 1924.94032268 103.69731284 1930.89257812 106.25878906 C1934.40784232 107.33924757 1937.95978593 108.26701498 1941.51757812 109.19628906 C1943.48152386 109.72082014 1945.44506827 110.24685623 1947.40820312 110.77441406 C1948.82262695 111.15436523 1948.82262695 111.15436523 1950.265625 111.54199219 C1956.83185364 113.33366944 1963.38563295 115.21742079 1969.70507812 117.75878906 C1974.29871848 119.56098485 1979.10998916 120.61413741 1983.9074707 121.72558594 C1988.0312642 122.70340833 1991.89872433 123.97154144 1995.84765625 125.50488281 C1999.38327013 126.80836606 2003.00768296 127.77432189 2006.64257812 128.75878906 C2007.42681152 128.9745459 2008.21104492 129.19030273 2009.01904297 129.41259766 C2013.50320271 130.63822508 2017.9987963 131.79146267 2022.51757812 132.88378906 C2025.66255569 133.65075226 2028.64315628 134.48223736 2031.64257812 135.69628906 C2039.5480846 138.82589163 2048.15326479 140.41009932 2056.42773438 142.29785156 C2057.17418213 142.46937744 2057.92062988 142.64090332 2058.68969727 142.81762695 C2060.11083078 143.14255197 2061.53313203 143.46243063 2062.95678711 143.77612305 C2066.36817547 144.55342779 2069.58107779 145.47763969 2072.83789062 146.76269531 C2077.06925558 148.4089704 2081.31742428 149.28762649 2085.76757812 150.13378906 C2092.14618453 151.40764525 2098.39679406 152.88110586 2104.64257812 154.69628906 C2111.73308947 156.74400388 2118.86760282 158.44471358 2126.08007812 160.00878906 C2127.53269043 160.32481079 2127.53269043 160.32481079 2129.01464844 160.6472168 C2133.00228787 161.4971843 2136.96215812 162.30612041 2141.00585938 162.83691406 C2143.89257812 163.25878906 2143.89257812 163.25878906 2144.89257812 164.25878906 C2146.22039691 164.46482991 2147.55553708 164.62508496 2148.89257812 164.75878906 C2152.78146701 165.14767795 2152.78146701 165.14767795 2153.89257812 166.25878906 C2155.22039691 166.46482991 2156.55553708 166.62508496 2157.89257812 166.75878906 C2161.78146701 167.14767795 2161.78146701 167.14767795 2162.89257812 168.25878906 C2164.44081568 168.60315395 2166.00103898 168.89399442 2167.56445312 169.16113281 C2168.53358643 169.32830811 2169.50271973 169.4954834 2170.5012207 169.66772461 C2171.53786865 169.84215088 2172.5745166 170.01657715 2173.64257812 170.19628906 C2175.20818481 170.46469604 2175.20818481 170.46469604 2176.80541992 170.73852539 C2183.41304431 171.86415485 2190.0250824 172.92613115 2196.66210938 173.86425781 C2198.89257812 174.25878906 2198.89257812 174.25878906 2200.89257812 175.25878906 C2202.38837416 175.45971689 2203.88954537 175.62214972 2205.39257812 175.75878906 C2209.6703559 176.14767795 2209.6703559 176.14767795 2211.89257812 177.25878906 C2214.48401718 177.56924432 2217.07629544 177.76852819 2219.67773438 177.97753906 C2221.89257812 178.25878906 2221.89257812 178.25878906 2222.89257812 179.25878906 C2224.51555299 179.53347812 2226.14837527 179.75044702 2227.78320312 179.94238281 C2228.79664795 180.06436035 2229.81009277 180.18633789 2230.85424805 180.31201172 C2231.93939697 180.43882324 2233.0245459 180.56563477 2234.14257812 180.69628906 C2247.470346 182.29714583 2247.470346 182.29714583 2254.08007812 183.38378906 C2259.44433307 184.25503047 2264.78976954 184.68783843 2270.21289062 185.01269531 C2272.89257812 185.25878906 2272.89257812 185.25878906 2275.89257812 186.25878906 C2278.3958435 186.46175653 2280.88564423 186.62986103 2283.39257812 186.75878906 C2290.48717272 187.12365393 2290.48717272 187.12365393 2293.89257812 188.25878906 C2295.24079669 188.39226924 2296.59369903 188.48200702 2297.94726562 188.54003906 C2298.72714844 188.57742187 2299.50703125 188.61480469 2300.31054688 188.65332031 C2301.12136719 188.688125 2301.9321875 188.72292969 2302.76757812 188.75878906 C2304.36929616 188.82820541 2305.97087068 188.9010309 2307.57226562 188.97753906 C2308.28108887 189.00783203 2308.98991211 189.038125 2309.72021484 189.06933594 C2311.89257812 189.25878906 2311.89257812 189.25878906 2314.29418945 189.75878906 C2317.15749289 190.3097658 2319.87306754 190.45282425 2322.78710938 190.54003906 C2323.90794922 190.57742187 2325.02878906 190.61480469 2326.18359375 190.65332031 C2327.34568359 190.688125 2328.50777344 190.72292969 2329.70507812 190.75878906 C2332.00336023 190.82831692 2334.30154488 190.9011564 2336.59960938 190.97753906 C2337.61514893 191.00783203 2338.63068848 191.038125 2339.67700195 191.06933594 C2342.89257812 191.25878906 2342.89257812 191.25878906 2346.5617981 191.76254272 C2350.85618847 192.30816531 2355.07616591 192.39992249 2359.40063477 192.38818359 C2360.20985886 192.38993591 2361.01908295 192.39168823 2361.85282898 192.39349365 C2364.50281987 192.39786134 2367.15274292 192.39499248 2369.80273438 192.39160156 C2371.65783196 192.392276 2373.51292945 192.39324719 2375.36802673 192.39450073 C2379.24544114 192.39597076 2383.12283243 192.39384527 2387.00024414 192.38916016 C2391.95866006 192.38345931 2396.91702188 192.38674855 2401.87543583 192.39273262 C2405.70251368 192.39635359 2409.52957879 192.39519265 2413.35665703 192.39260483 C2415.18461552 192.39194002 2417.01257518 192.39274833 2418.8405323 192.39508438 C2421.39835785 192.3976366 2423.95609687 192.3937344 2426.51391602 192.38818359 C2427.26164276 192.39020782 2428.00936951 192.39223206 2428.77975464 192.39431763 C2433.23913516 192.37647743 2437.49205724 191.9605817 2441.89257812 191.25878906 C2443.81010129 191.13431207 2445.72983493 191.03963098 2447.65039062 190.97753906 C2448.68808594 190.94015625 2449.72578125 190.90277344 2450.79492188 190.86425781 C2452.95116353 190.7936899 2455.10741362 190.72337924 2457.26367188 190.65332031 C2458.29878906 190.6159375 2459.33390625 190.57855469 2460.40039062 190.54003906 C2461.33512207 190.50974609 2462.26985352 190.47945312 2463.23291016 190.44824219 C2465.86457556 190.26078374 2468.31122293 189.78766216 2470.89257812 189.25878906 C2472.40322151 189.13238629 2473.91695077 189.03865984 2475.43164062 188.97753906 C2476.25921875 188.94015625 2477.08679687 188.90277344 2477.93945312 188.86425781 C2479.6660026 188.79362624 2481.39256528 188.72331661 2483.11914062 188.65332031 C2483.94414062 188.6159375 2484.76914063 188.57855469 2485.61914062 188.54003906 C2486.36760254 188.50974609 2487.11606445 188.47945312 2487.88720703 188.44824219 C2490.09879921 188.31538117 2490.09879921 188.31538117 2492.89257812 187.25878906 C2496.32050305 186.99980628 2499.74252128 186.81637751 2503.17578125 186.65332031 C2507.16400785 186.51847419 2507.16400785 186.51847419 2510.89257812 185.25878906 C2513.20190335 185.05275261 2515.51544196 184.89255545 2517.83007812 184.75878906 C2522.95067648 184.47728517 2522.95067648 184.47728517 2527.89257812 183.25878906 C2540.26757812 182.26878906 2540.26757812 182.26878906 2552.89257812 181.25878906 C2552.89257812 211.28878906 2552.89257812 241.31878906 2552.89257812 272.25878906 C1397.89257812 272.25878906 242.89257812 272.25878906 -947.10742188 272.25878906 C-947.10742188 231.00878906 -947.10742188 189.75878906 -947.10742188 147.25878906 C-941.5356397 147.25878906 -941.5356397 147.25878906 -938.32617188 148.63378906 C-934.15610041 150.30025289 -929.99005173 151.31680305 -925.60742188 152.25878906 C-921.35476283 153.17283964 -917.26022823 154.13420788 -913.20507812 155.72753906 C-908.58794629 157.53133634 -903.86867028 158.64834974 -899.04492188 159.75878906 C-898.13258789 159.9730957 -897.22025391 160.18740234 -896.28027344 160.40820312 C-889.46467363 161.99205965 -882.62663476 163.40023428 -875.74804688 164.68066406 C-873.10742188 165.25878906 -873.10742188 165.25878906 -872.10742188 166.25878906 C-869.60953136 166.77918292 -867.11933625 167.25421027 -864.60742188 167.69628906 C-860.28271358 168.46739271 -855.98252136 169.27183625 -851.70117188 170.25878906 C-846.01738685 171.5452551 -840.27245773 172.35724245 -834.50976562 173.20214844 C-828.21072049 174.15549045 -828.21072049 174.15549045 -827.10742188 175.25878906 C-825.46634946 175.46717921 -823.81885894 175.62630631 -822.16992188 175.75878906 C-817.32697591 176.14901205 -817.32697591 176.14901205 -815.10742188 177.25878906 C-813.44469484 177.46101262 -811.77688003 177.62290293 -810.10742188 177.75878906 C-805.3296441 178.14767795 -805.3296441 178.14767795 -803.10742188 179.25878906 C-801.2987205 179.4625864 -799.48505595 179.62379901 -797.66992188 179.75878906 C-794.54433469 179.99185548 -792.09317359 180.26353849 -789.10742188 181.25878906 C-787.24921257 181.46324533 -785.38605435 181.62416741 -783.52148438 181.75878906 C-782.42578125 181.84128906 -781.33007812 181.92378906 -780.20117188 182.00878906 C-779.05648437 182.09128906 -777.91179687 182.17378906 -776.73242188 182.25878906 C-774.47440302 182.42263624 -772.21657958 182.58920445 -769.95898438 182.75878906 C-768.95689941 182.83097656 -767.95481445 182.90316406 -766.92236328 182.97753906 C-764.25968627 183.24357583 -761.7279294 183.73124475 -759.10742188 184.25878906 C-757.60850772 184.38509565 -756.10649787 184.47887213 -754.60351562 184.54003906 C-753.78044922 184.57742187 -752.95738281 184.61480469 -752.109375 184.65332031 C-750.39583992 184.72379319 -748.68229821 184.79410497 -746.96875 184.86425781 C-746.14697266 184.90164062 -745.32519531 184.93902344 -744.47851562 184.97753906 C-743.73529053 185.00783203 -742.99206543 185.038125 -742.22631836 185.06933594 C-740.10742188 185.25878906 -740.10742188 185.25878906 -738.28344727 185.75878906 C-735.16059364 186.47634816 -732.12112373 186.46458445 -728.91992188 186.54003906 C-727.87239746 186.5676532 -727.87239746 186.5676532 -726.80371094 186.5958252 C-724.57169742 186.65435963 -722.33960476 186.70714721 -720.10742188 186.75878906 C-703.77288057 187.1440207 -703.77288057 187.1440207 -696.92382812 187.78222656 C-690.29537355 188.39046613 -683.6972433 188.40549321 -677.04492188 188.38378906 C-675.26118164 188.38958984 -675.26118164 188.38958984 -673.44140625 188.39550781 C-667.27084711 188.3887307 -661.23299644 188.13865749 -655.09741211 187.50830078 C-647.91489793 186.9089271 -640.6806353 186.87815817 -633.47680664 186.70654297 C-631.35486692 186.65473618 -629.23311817 186.59760646 -627.11132812 186.54003906 C-625.8616626 186.50974609 -624.61199707 186.47945312 -623.32446289 186.44824219 C-620.70712734 186.29410601 -618.60570383 185.95147289 -616.10742188 185.25878906 C-613.37567324 185.07857947 -610.65431218 184.93510102 -607.91992188 184.82128906 C-600.93089878 184.4858387 -594.03302254 183.86276563 -587.09204102 182.98950195 C-583.01641885 182.477724 -578.95383155 182.05983754 -574.85742188 181.75878906 C-564.17192309 181.24908826 -564.17192309 181.24908826 -554.10742188 178.25878906 C-551.54864294 177.94758622 -548.98890576 177.7491424 -546.41992188 177.54003906 C-544.08473732 177.38742859 -544.08473732 177.38742859 -542.10742188 176.25878906 C-540.77833199 176.07833074 -539.44360145 175.93820478 -538.10742188 175.82128906 C-534.01546862 175.39977248 -530.0604332 174.70247135 -526.03710938 173.85644531 C-523.11775751 173.26089753 -520.19003333 172.72713052 -517.2578125 172.19921875 C-510.88446934 171.04557806 -504.64995906 169.67607999 -498.42382812 167.87597656 C-496.10742187 167.25878906 -496.10742187 167.25878906 -492.48242188 166.75878906 C-489.7815525 166.35866027 -487.81413308 165.85749312 -485.29492188 164.94628906 C-479.90139086 163.03995483 -474.35049232 161.93146084 -468.75463867 160.79272461 C-464.28911887 159.85494117 -460.15530731 158.61127916 -455.90991211 156.94140625 C-453.53693009 156.04273935 -451.14173139 155.44940372 -448.66992188 154.88378906 C-443.48587344 153.62905122 -438.35543495 152.23988903 -433.23242188 150.75878906 C-432.51900635 150.55721191 -431.80559082 150.35563477 -431.07055664 150.14794922 C-426.81131513 148.90331697 -423.07329834 147.27944623 -419.10742188 145.25878906 C-417.08098718 144.56664319 -415.03797241 143.9214686 -412.98242188 143.32128906 C-411.84804688 142.98097656 -410.71367188 142.64066406 -409.54492188 142.29003906 C-408.41054688 141.94972656 -407.27617188 141.60941406 -406.10742188 141.25878906 C-399.11550206 139.09129392 -392.51176559 136.60141459 -385.89257812 133.47753906 C-382.98392928 132.20475023 -380.0707986 131.21717658 -377.04492188 130.25878906 C-372.38688622 128.76774052 -368.25667003 126.8840393 -363.93945312 124.61035156 C-360.38663916 122.91480172 -356.74506092 121.59421606 -353.04492188 120.25878906 C-347.80187377 118.35950307 -343.00147295 116.27824468 -338.19335938 113.42285156 C-332.82941779 110.4294909 -327.14851408 108.3299047 -321.10742188 107.25878906 C-321.10742188 106.59878906 -321.10742188 105.93878906 -321.10742188 105.25878906 C-319.78742187 105.25878906 -318.46742188 105.25878906 -317.10742188 105.25878906 C-317.10742188 104.59878906 -317.10742188 103.93878906 -317.10742188 103.25878906 C-316.18960938 102.88367188 -315.27179687 102.50855469 -314.32617188 102.12207031 C-308.30363175 99.62417826 -302.4966581 97.11720646 -297.04882812 93.49316406 C-287.24349782 87.25878906 -287.24349782 87.25878906 -282.10742188 87.25878906 C-282.10742188 86.59878906 -282.10742188 85.93878906 -282.10742188 85.25878906 C-280.63595703 84.53175781 -280.63595703 84.53175781 -279.13476562 83.79003906 C-272.38130815 80.43992535 -265.66778155 77.04858774 -259.04492188 73.44628906 C-245.14747765 65.93287669 -230.79227085 59.08889328 -216.10742188 53.25878906 C-214.08484692 52.42969176 -212.06405228 51.59624009 -210.04492188 50.75878906 C-209.04589844 50.345 -208.046875 49.93121094 -207.01757812 49.50488281 C-204.30238871 48.34227151 -201.64698469 47.09458396 -198.98242188 45.82128906 C-193.32837788 43.20856028 -187.48910988 41.29319212 -181.56396484 39.40161133 C-178.09849157 38.28947692 -174.71267494 37.13729231 -171.37695312 35.67675781 C-168.60451179 34.47437286 -165.9447458 33.52144221 -163.04492188 32.69628906 C-160.39610037 31.92868763 -157.78133484 31.14778071 -155.16992188 30.25878906 C-152.37178537 29.34511184 -149.5770515 28.57439403 -146.73242188 27.82128906 C-143.51388752 26.95725299 -140.39328901 26.04730961 -137.29492188 24.82128906 C-127.24570576 20.93909692 -116.85279133 18.7181896 -106.30859375 16.6953125 C-100.91426979 15.65252044 -95.65757599 14.38836873 -90.38085938 12.84863281 C-86.98592711 11.96781705 -83.5890286 11.64563425 -80.10742188 11.25878906 C-79.77742187 10.92878906 -79.44742188 10.59878906 -79.10742188 10.25878906 C-77.75409949 9.97434936 -76.38915807 9.74462663 -75.02148438 9.54003906 C-73.75570557 9.34933838 -73.75570557 9.34933838 -72.46435547 9.15478516 C-71.56281738 9.02410645 -70.6612793 8.89342773 -69.73242188 8.75878906 C-68.37044678 8.55697021 -68.37044678 8.55697021 -66.98095703 8.35107422 C-61.33306821 7.53068229 -55.7030345 6.84714195 -50.00585938 6.46972656 C-48.0217672 6.36000562 -48.0217672 6.36000562 -46.10742188 5.25878906 C-43.9649495 5.05338559 -41.81803585 4.89289651 -39.66992188 4.75878906 C-36.2129361 4.54248604 -33.39695477 4.35530003 -30.10742188 3.25878906 C-26.55228935 3.0307103 -23.00324014 2.86574602 -19.44335938 2.74121094 C-18.70601562 2.70705078 -17.96867188 2.67289062 -17.20898438 2.63769531 C-16.54205566 2.61263916 -15.87512695 2.58758301 -15.18798828 2.56176758 C-13.03700137 2.35203292 -13.03700137 2.35203292 -10.98410034 1.25602722 C-7.29860927 -0.02159639 -3.85150514 -0.02078248 0 0 Z " fill="#ADC901" transform="translate(947.107421875,4.7412109375)"/>
</svg>
